<?xml version="1.0" standalone="no"?>
<!DOCTYPE svg PUBLIC "-//W3C//DTD SVG 20010904//EN"
 "http://www.w3.org/TR/2001/REC-SVG-20010904/DTD/svg10.dtd">
<svg version="1.0" xmlns="http://www.w3.org/2000/svg"
 width="403.000000pt" height="403.000000pt" viewBox="0 0 403.000000 403.000000"
 preserveAspectRatio="xMidYMid meet">

<g transform="translate(0.000000,403.000000) scale(0.100000,-0.100000)"
fill="#000000" stroke="none">
<path d="M1806 4020 c-390 -45 -754 -195 -1051 -433 -77 -62 -230 -214 -294
-292 -467 -568 -588 -1340 -319 -2020 174 -441 512 -819 928 -1038 594 -314
1296 -314 1890 0 346 182 651 487 833 833 221 420 287 868 196 1340 -98 510
-398 963 -844 1272 -228 159 -531 278 -821 324 -119 18 -409 26 -518 14z m404
-224 c73 -36 134 -97 173 -171 29 -55 32 -68 32 -155 0 -78 -4 -104 -23 -144
-134 -292 -529 -296 -666 -6 -25 54 -30 77 -31 140 0 166 91 296 248 352 77
28 194 21 267 -16z m-599 -36 c-205 -317 -31 -737 338 -816 84 -17 129 -17
216 1 204 43 363 199 411 402 31 132 2 303 -69 407 -14 22 -25 41 -23 43 1 2
50 -13 108 -31 413 -134 772 -422 1009 -811 44 -72 143 -281 154 -327 8 -32
19 -30 -325 -62 -460 -44 -586 -50 -935 -50 -444 0 -682 22 -1205 110 -226 38
-887 166 -928 180 -24 8 113 239 216 364 261 317 589 527 992 634 30 8 61 15
67 15 7 1 -5 -26 -26 -59z m-979 -1185 c150 -30 358 -70 461 -89 104 -19 191
-36 193 -39 5 -5 -728 -387 -742 -387 -6 0 -27 53 -47 118 -21 64 -61 192 -91
285 -30 92 -52 167 -50 167 2 0 126 -25 276 -55z m-297 -233 c145 -452 224
-706 222 -708 -1 -1 -84 25 -184 57 l-182 59 -8 48 c-14 85 -8 398 11 507 19
114 55 255 65 255 3 0 37 -98 76 -218z m3497 -17 c23 -132 33 -358 20 -468 -8
-75 -13 -91 -33 -105 -77 -55 -1069 -722 -1074 -722 -3 0 -19 21 -36 47 -34
54 -69 160 -94 281 l-16 82 167 328 c229 449 295 576 304 585 4 5 83 15 176
23 93 8 241 23 329 33 88 11 178 18 200 17 l40 -1 17 -100z m-2035 55 c94 -10
263 -24 375 -31 111 -6 205 -13 206 -15 2 -1 8 -139 12 -306 10 -331 20 -470
50 -654 44 -276 132 -452 268 -538 144 -91 357 -94 670 -12 l52 14 -19 -26
c-10 -15 -61 -68 -113 -118 -333 -322 -747 -500 -1213 -521 -400 -18 -826 111
-1149 348 -62 46 -67 52 -53 67 41 48 316 550 415 760 148 311 234 628 268
990 7 72 7 73 33 67 14 -3 103 -14 198 -25z m-418 -155 c-24 -184 -59 -341
-110 -498 -31 -92 -96 -255 -114 -285 -4 -5 -450 142 -462 152 -16 15 -123
349 -114 358 3 4 130 71 281 149 151 78 333 173 405 210 71 37 130 67 131 66
1 -1 -7 -69 -17 -152z m1561 120 c0 -3 -80 -162 -177 -352 -154 -303 -177
-343 -185 -322 -5 13 -12 169 -15 346 l-6 322 109 4 c236 7 274 7 274 2z
m-2420 -812 c461 -147 580 -187 580 -195 0 -19 -87 -182 -286 -536 l-69 -123
-80 84 c-217 229 -349 477 -452 850 -6 22 -40 31 307 -80z m3290 66 c0 -6 -14
-59 -31 -118 -34 -114 -90 -247 -146 -351 l-36 -65 -171 -48 c-94 -26 -205
-55 -246 -64 -89 -19 -273 -22 -314 -4 -29 12 -29 12 160 140 621 420 770 520
777 521 4 0 7 -5 7 -11z"/>
</g>
</svg>
